<?xml version="1.0" encoding="UTF-8"?>
<!DOCTYPE svg PUBLIC "-//W3C//DTD SVG 1.1//EN" "http://www.w3.org/Graphics/SVG/1.1/DTD/svg11.dtd">
<svg xmlns="http://www.w3.org/2000/svg" style="background: #ffffff; background-color: #ffffff; color-scheme: light;" xmlns:xlink="http://www.w3.org/1999/xlink" version="1.1" width="1031px" height="182px" viewBox="-0.5 -0.5 1031 182"><defs><clipPath id="mx-clip-0-60-30-30-0"><rect x="0" y="60" width="30" height="30"/></clipPath><clipPath id="mx-clip-36-60-214-30-0"><rect x="36" y="60" width="214" height="30"/></clipPath><clipPath id="mx-clip-0-90-30-30-0"><rect x="0" y="90" width="30" height="30"/></clipPath><clipPath id="mx-clip-36-90-214-30-0"><rect x="36" y="90" width="214" height="30"/></clipPath><clipPath id="mx-clip-400-30-60-30-0"><rect x="400" y="30" width="60" height="30"/></clipPath><clipPath id="mx-clip-466-30-209-30-0"><rect x="466" y="30" width="209" height="30"/></clipPath><clipPath id="mx-clip-400-60-60-30-0"><rect x="400" y="60" width="60" height="30"/></clipPath><clipPath id="mx-clip-466-60-209-30-0"><rect x="466" y="60" width="209" height="30"/></clipPath><clipPath id="mx-clip-400-90-60-30-0"><rect x="400" y="90" width="60" height="30"/></clipPath><clipPath id="mx-clip-466-90-209-30-0"><rect x="466" y="90" width="209" height="30"/></clipPath><clipPath id="mx-clip-400-120-60-30-0"><rect x="400" y="120" width="60" height="30"/></clipPath><clipPath id="mx-clip-466-120-209-30-0"><rect x="466" y="120" width="209" height="30"/></clipPath><clipPath id="mx-clip-466-150-209-30-0"><rect x="466" y="150" width="209" height="30"/></clipPath><clipPath id="mx-clip-850-30-30-30-0"><rect x="850" y="30" width="30" height="30"/></clipPath><clipPath id="mx-clip-886-30-144-30-0"><rect x="886" y="30" width="144" height="30"/></clipPath></defs><rect fill="#ffffff" width="100%" height="100%" x="0" y="0" style="fill: rgb(255, 255, 255);"/><g><g data-cell-id="eXPTqLrkXzhNjFm8Aq44-0"><g data-cell-id="eXPTqLrkXzhNjFm8Aq44-1"><g data-cell-id="eXPTqLrkXzhNjFm8Aq44-12"><g><path d="M 0 60 L 0 30 L 250 30 L 250 60" fill="#ffffff" stroke="#000000" stroke-miterlimit="10" pointer-events="all" style="fill: rgb(255, 255, 255); stroke: rgb(0, 0, 0);"/><path d="M 0 60 L 0 120 L 250 120 L 250 60" fill="none" stroke="#000000" stroke-miterlimit="10" pointer-events="none" style="stroke: rgb(0, 0, 0);"/><path d="M 0 60 L 250 60" fill="none" stroke="#000000" stroke-miterlimit="10" pointer-events="none" style="stroke: rgb(0, 0, 0);"/><path d="M 30 60 L 30 90 L 30 120" fill="none" stroke="#000000" stroke-miterlimit="10" pointer-events="none" style="stroke: rgb(0, 0, 0);"/></g><g><g fill="#000000" font-family="&quot;Helvetica&quot;" font-weight="bold" text-anchor="middle" font-size="12px" style="fill: rgb(0, 0, 0);"><text x="124.5" y="49.5">municipios</text></g></g><g data-cell-id="eXPTqLrkXzhNjFm8Aq44-13"><g><path d="M 0 60 M 250 60 M 250 90 L 0 90" fill="none" stroke="#000000" stroke-linecap="square" stroke-miterlimit="10" pointer-events="none" style="stroke: rgb(0, 0, 0);"/></g><g data-cell-id="eXPTqLrkXzhNjFm8Aq44-14"><g><rect x="0" y="60" width="30" height="30" fill="none" stroke="none" pointer-events="all"/><path d="M 0 60 M 30 60 M 30 90 M 0 90" fill="none" stroke="#000000" stroke-linecap="square" stroke-miterlimit="10" pointer-events="all" style="stroke: rgb(0, 0, 0);"/></g><g><g fill="#000000" font-family="&quot;Helvetica&quot;" font-weight="bold" clip-path="url(#mx-clip-0-60-30-30-0)" text-anchor="middle" font-size="12px" style="fill: rgb(0, 0, 0);"><text x="14.5" y="79.5">PK</text></g></g></g><g data-cell-id="eXPTqLrkXzhNjFm8Aq44-15"><g><rect x="30" y="60" width="220" height="30" fill="none" stroke="none" pointer-events="all"/><path d="M 30 60 M 250 60 M 250 90 M 30 90" fill="none" stroke="#000000" stroke-linecap="square" stroke-miterlimit="10" pointer-events="all" style="stroke: rgb(0, 0, 0);"/></g><g><g fill="#000000" font-family="&quot;Helvetica&quot;" font-weight="bold" text-decoration="underline" clip-path="url(#mx-clip-36-60-214-30-0)" font-size="12px" style="fill: rgb(0, 0, 0);"><text x="37.5" y="79.5">uf VARCHAR</text></g></g></g></g><g data-cell-id="eXPTqLrkXzhNjFm8Aq44-16"><g><path d="M 0 90 M 250 90 M 250 120 L 0 120" fill="none" stroke="#000000" stroke-linecap="square" stroke-miterlimit="10" pointer-events="none" style="stroke: rgb(0, 0, 0);"/></g><g data-cell-id="eXPTqLrkXzhNjFm8Aq44-17"><g><rect x="0" y="90" width="30" height="30" fill="none" stroke="none" pointer-events="all"/><path d="M 0 90 M 30 90 M 30 120 M 0 120" fill="none" stroke="#000000" stroke-linecap="square" stroke-miterlimit="10" pointer-events="all" style="stroke: rgb(0, 0, 0);"/></g><g><g fill="#000000" font-family="&quot;Helvetica&quot;" font-weight="bold" clip-path="url(#mx-clip-0-90-30-30-0)" text-anchor="middle" font-size="12px" style="fill: rgb(0, 0, 0);"><text x="14.5" y="109.5">PK</text></g></g></g><g data-cell-id="eXPTqLrkXzhNjFm8Aq44-18"><g><rect x="30" y="90" width="220" height="30" fill="none" stroke="none" pointer-events="all"/><path d="M 30 90 M 250 90 M 250 120 M 30 120" fill="none" stroke="#000000" stroke-linecap="square" stroke-miterlimit="10" pointer-events="all" style="stroke: rgb(0, 0, 0);"/></g><g><g fill="#000000" font-family="&quot;Helvetica&quot;" font-weight="bold" text-decoration="underline" clip-path="url(#mx-clip-36-90-214-30-0)" font-size="12px" style="fill: rgb(0, 0, 0);"><text x="37.5" y="109.5">municipio VARCHAR </text></g></g></g></g></g><g data-cell-id="eXPTqLrkXzhNjFm8Aq44-19"><g><path d="M 400 30 L 400 0 L 675 0 L 675 30" fill="#ffffff" stroke="#000000" stroke-miterlimit="10" pointer-events="all" style="fill: rgb(255, 255, 255); stroke: rgb(0, 0, 0);"/><path d="M 400 30 L 400 180 L 675 180 L 675 30" fill="none" stroke="#000000" stroke-miterlimit="10" pointer-events="none" style="stroke: rgb(0, 0, 0);"/><path d="M 400 30 L 675 30" fill="none" stroke="#000000" stroke-miterlimit="10" pointer-events="none" style="stroke: rgb(0, 0, 0);"/><path d="M 460 30 L 460 60 L 460 90 L 460 120 L 460 150 L 460 180" fill="none" stroke="#000000" stroke-miterlimit="10" pointer-events="none" style="stroke: rgb(0, 0, 0);"/></g><g><g fill="#000000" font-family="&quot;Helvetica&quot;" font-weight="bold" text-anchor="middle" font-size="12px" style="fill: rgb(0, 0, 0);"><text x="537" y="19.5">desmatamento</text></g></g><g data-cell-id="eXPTqLrkXzhNjFm8Aq44-20"><g><path d="M 400 30 M 675 30 M 675 60 L 400 60" fill="none" stroke="#000000" stroke-linecap="square" stroke-miterlimit="10" pointer-events="none" style="stroke: rgb(0, 0, 0);"/></g><g data-cell-id="eXPTqLrkXzhNjFm8Aq44-21"><g><rect x="400" y="30" width="60" height="30" fill="none" stroke="none" pointer-events="all"/><path d="M 400 30 M 460 30 M 460 60 M 400 60" fill="none" stroke="#000000" stroke-linecap="square" stroke-miterlimit="10" pointer-events="all" style="stroke: rgb(0, 0, 0);"/></g><g><g fill="#000000" font-family="&quot;Helvetica&quot;" font-weight="bold" clip-path="url(#mx-clip-400-30-60-30-0)" text-anchor="middle" font-size="12px" style="fill: rgb(0, 0, 0);"><text x="429.5" y="49.5">PK, FK</text></g></g></g><g data-cell-id="eXPTqLrkXzhNjFm8Aq44-22"><g><rect x="460" y="30" width="215" height="30" fill="none" stroke="none" pointer-events="all"/><path d="M 460 30 M 675 30 M 675 60 M 460 60" fill="none" stroke="#000000" stroke-linecap="square" stroke-miterlimit="10" pointer-events="all" style="stroke: rgb(0, 0, 0);"/></g><g><g fill="#000000" font-family="&quot;Helvetica&quot;" font-weight="bold" text-decoration="underline" clip-path="url(#mx-clip-466-30-209-30-0)" font-size="12px" style="fill: rgb(0, 0, 0);"><text x="467.5" y="49.5">bioma VARCHAR </text></g></g></g></g><g data-cell-id="eXPTqLrkXzhNjFm8Aq44-23"><g><path d="M 400 60 M 675 60 M 675 90 L 400 90" fill="none" stroke="#000000" stroke-linecap="square" stroke-miterlimit="10" pointer-events="none" style="stroke: rgb(0, 0, 0);"/></g><g data-cell-id="eXPTqLrkXzhNjFm8Aq44-24"><g><rect x="400" y="60" width="60" height="30" fill="none" stroke="none" pointer-events="all"/><path d="M 400 60 M 460 60 M 460 90 M 400 90" fill="none" stroke="#000000" stroke-linecap="square" stroke-miterlimit="10" pointer-events="all" style="stroke: rgb(0, 0, 0);"/></g><g><g fill="#000000" font-family="&quot;Helvetica&quot;" font-weight="bold" clip-path="url(#mx-clip-400-60-60-30-0)" text-anchor="middle" font-size="12px" style="fill: rgb(0, 0, 0);"><text x="429.5" y="79.5">PK, FK</text></g></g></g><g data-cell-id="eXPTqLrkXzhNjFm8Aq44-25"><g><rect x="460" y="60" width="215" height="30" fill="none" stroke="none" pointer-events="all"/><path d="M 460 60 M 675 60 M 675 90 M 460 90" fill="none" stroke="#000000" stroke-linecap="square" stroke-miterlimit="10" pointer-events="all" style="stroke: rgb(0, 0, 0);"/></g><g><g fill="#000000" font-family="&quot;Helvetica&quot;" font-weight="bold" text-decoration="underline" clip-path="url(#mx-clip-466-60-209-30-0)" font-size="12px" style="fill: rgb(0, 0, 0);"><text x="467.5" y="79.5">uf VARCHAR </text></g></g></g></g><g data-cell-id="eXPTqLrkXzhNjFm8Aq44-26"><g><path d="M 400 90 M 675 90 M 675 120 L 400 120" fill="none" stroke="#000000" stroke-linecap="square" stroke-miterlimit="10" pointer-events="none" style="stroke: rgb(0, 0, 0);"/></g><g data-cell-id="eXPTqLrkXzhNjFm8Aq44-27"><g><rect x="400" y="90" width="60" height="30" fill="none" stroke="none" pointer-events="all"/><path d="M 400 90 M 460 90 M 460 120 M 400 120" fill="none" stroke="#000000" stroke-linecap="square" stroke-miterlimit="10" pointer-events="all" style="stroke: rgb(0, 0, 0);"/></g><g><g fill="#000000" font-family="&quot;Helvetica&quot;" font-weight="bold" clip-path="url(#mx-clip-400-90-60-30-0)" text-anchor="middle" font-size="12px" style="fill: rgb(0, 0, 0);"><text x="429.5" y="109.5">PK, FK</text></g></g></g><g data-cell-id="eXPTqLrkXzhNjFm8Aq44-28"><g><rect x="460" y="90" width="215" height="30" fill="none" stroke="none" pointer-events="all"/><path d="M 460 90 M 675 90 M 675 120 M 460 120" fill="none" stroke="#000000" stroke-linecap="square" stroke-miterlimit="10" pointer-events="all" style="stroke: rgb(0, 0, 0);"/></g><g><g fill="#000000" font-family="&quot;Helvetica&quot;" font-weight="bold" text-decoration="underline" clip-path="url(#mx-clip-466-90-209-30-0)" font-size="12px" style="fill: rgb(0, 0, 0);"><text x="467.5" y="109.5">municipio VARCHAR </text></g></g></g></g><g data-cell-id="eXPTqLrkXzhNjFm8Aq44-29"><g><path d="M 400 120 M 675 120 M 675 150 L 400 150" fill="none" stroke="#000000" stroke-linecap="square" stroke-miterlimit="10" pointer-events="none" style="stroke: rgb(0, 0, 0);"/></g><g data-cell-id="eXPTqLrkXzhNjFm8Aq44-30"><g><rect x="400" y="120" width="60" height="30" fill="none" stroke="none" pointer-events="all"/><path d="M 400 120 M 460 120 M 460 150 M 400 150" fill="none" stroke="#000000" stroke-linecap="square" stroke-miterlimit="10" pointer-events="all" style="stroke: rgb(0, 0, 0);"/></g><g><g fill="#000000" font-family="&quot;Helvetica&quot;" font-weight="bold" clip-path="url(#mx-clip-400-120-60-30-0)" text-anchor="middle" font-size="12px" style="fill: rgb(0, 0, 0);"><text x="429.5" y="139.5">PK</text></g></g></g><g data-cell-id="eXPTqLrkXzhNjFm8Aq44-31"><g><rect x="460" y="120" width="215" height="30" fill="none" stroke="none" pointer-events="all"/><path d="M 460 120 M 675 120 M 675 150 M 460 150" fill="none" stroke="#000000" stroke-linecap="square" stroke-miterlimit="10" pointer-events="all" style="stroke: rgb(0, 0, 0);"/></g><g><g fill="#000000" font-family="&quot;Helvetica&quot;" font-weight="bold" text-decoration="underline" clip-path="url(#mx-clip-466-120-209-30-0)" font-size="12px" style="fill: rgb(0, 0, 0);"><text x="467.5" y="139.5">ano INT </text></g></g></g></g><g data-cell-id="eXPTqLrkXzhNjFm8Aq44-32"><g/><g data-cell-id="eXPTqLrkXzhNjFm8Aq44-33"><g><rect x="400" y="150" width="60" height="30" fill="none" stroke="none" pointer-events="all"/><path d="M 400 150 M 460 150 M 460 180 M 400 180" fill="none" stroke="#000000" stroke-linecap="square" stroke-miterlimit="10" pointer-events="all" style="stroke: rgb(0, 0, 0);"/></g></g><g data-cell-id="eXPTqLrkXzhNjFm8Aq44-34"><g><rect x="460" y="150" width="215" height="30" fill="none" stroke="none" pointer-events="all"/><path d="M 460 150 M 675 150 M 675 180 M 460 180" fill="none" stroke="#000000" stroke-linecap="square" stroke-miterlimit="10" pointer-events="all" style="stroke: rgb(0, 0, 0);"/></g><g><g fill="#000000" font-family="&quot;Helvetica&quot;" clip-path="url(#mx-clip-466-150-209-30-0)" font-size="12px" style="fill: rgb(0, 0, 0);"><text x="467.5" y="169.5">area_km2 DECIMAL(14,2)</text></g></g></g></g></g><g data-cell-id="eXPTqLrkXzhNjFm8Aq44-52"><g><path d="M 850 30 L 850 0 L 1030 0 L 1030 30" fill="#ffffff" stroke="#000000" stroke-miterlimit="10" pointer-events="all" style="fill: rgb(255, 255, 255); stroke: rgb(0, 0, 0);"/><path d="M 850 30 L 850 60 L 1030 60 L 1030 30" fill="none" stroke="#000000" stroke-miterlimit="10" pointer-events="none" style="stroke: rgb(0, 0, 0);"/><path d="M 850 30 L 1030 30" fill="none" stroke="#000000" stroke-miterlimit="10" pointer-events="none" style="stroke: rgb(0, 0, 0);"/><path d="M 880 30 L 880 60" fill="none" stroke="#000000" stroke-miterlimit="10" pointer-events="none" style="stroke: rgb(0, 0, 0);"/></g><g><g fill="#000000" font-family="&quot;Helvetica&quot;" font-weight="bold" text-anchor="middle" font-size="12px" style="fill: rgb(0, 0, 0);"><text x="939.5" y="19.5">bioma</text></g></g><g data-cell-id="eXPTqLrkXzhNjFm8Aq44-53"><g><path d="M 850 30 M 1030 30 M 1030 60 L 850 60" fill="none" stroke="#000000" stroke-linecap="square" stroke-miterlimit="10" pointer-events="none" style="stroke: rgb(0, 0, 0);"/></g><g data-cell-id="eXPTqLrkXzhNjFm8Aq44-54"><g><rect x="850" y="30" width="30" height="30" fill="none" stroke="none" pointer-events="all"/><path d="M 850 30 M 880 30 M 880 60 M 850 60" fill="none" stroke="#000000" stroke-linecap="square" stroke-miterlimit="10" pointer-events="all" style="stroke: rgb(0, 0, 0);"/></g><g><g fill="#000000" font-family="&quot;Helvetica&quot;" font-weight="bold" clip-path="url(#mx-clip-850-30-30-30-0)" text-anchor="middle" font-size="12px" style="fill: rgb(0, 0, 0);"><text x="864.5" y="49.5">PK</text></g></g></g><g data-cell-id="eXPTqLrkXzhNjFm8Aq44-55"><g><rect x="880" y="30" width="150" height="30" fill="none" stroke="none" pointer-events="all"/><path d="M 880 30 M 1030 30 M 1030 60 M 880 60" fill="none" stroke="#000000" stroke-linecap="square" stroke-miterlimit="10" pointer-events="all" style="stroke: rgb(0, 0, 0);"/></g><g><g fill="#000000" font-family="&quot;Helvetica&quot;" font-weight="bold" text-decoration="underline" clip-path="url(#mx-clip-886-30-144-30-0)" font-size="12px" style="fill: rgb(0, 0, 0);"><text x="887.5" y="49.5">bioma VARCHAR</text></g></g></g></g></g><g data-cell-id="Vx68sNEnCwAFyHLI5XVK-0"><g><path d="M 400 105 L 256.37 105" fill="none" stroke="#000000" stroke-miterlimit="10" pointer-events="stroke" style="stroke: rgb(0, 0, 0);"/><path d="M 251.12 105 L 258.12 101.5 L 256.37 105 L 258.12 108.5 Z" fill="#000000" stroke="#000000" stroke-miterlimit="10" pointer-events="all" style="fill: rgb(0, 0, 0); stroke: rgb(0, 0, 0);"/></g></g><g data-cell-id="Vx68sNEnCwAFyHLI5XVK-1"><g><path d="M 400 75 L 256.37 75" fill="none" stroke="#000000" stroke-miterlimit="10" pointer-events="stroke" style="stroke: rgb(0, 0, 0);"/><path d="M 251.12 75 L 258.12 71.5 L 256.37 75 L 258.12 78.5 Z" fill="#000000" stroke="#000000" stroke-miterlimit="10" pointer-events="all" style="fill: rgb(0, 0, 0); stroke: rgb(0, 0, 0);"/></g></g><g data-cell-id="Vx68sNEnCwAFyHLI5XVK-2"><g><path d="M 675 45 L 843.63 45" fill="none" stroke="#000000" stroke-miterlimit="10" pointer-events="stroke" style="stroke: rgb(0, 0, 0);"/><path d="M 848.88 45 L 841.88 48.5 L 843.63 45 L 841.88 41.5 Z" fill="#000000" stroke="#000000" stroke-miterlimit="10" pointer-events="all" style="fill: rgb(0, 0, 0); stroke: rgb(0, 0, 0);"/></g></g></g></g></g></svg>